<svg width="39" height="42" viewBox="0 0 39 42" fill="none" xmlns="http://www.w3.org/2000/svg">
<path d="M19.2786 0.580104C16.8131 0.578789 14.3715 1.03106 12.0934 1.91106C9.8153 2.79105 7.7454 4.08152 6.00203 5.70866C4.25866 7.3358 2.87602 9.26772 1.93317 11.3939C0.990312 13.5202 0.505736 15.799 0.507144 18.1001C0.507144 26.2801 13.9321 37.6801 18.0679 41.0001C18.4027 41.2703 18.8306 41.419 19.2732 41.419C19.7159 41.419 20.1437 41.2703 20.4786 41.0001C21.6143 40.0901 23.4464 38.5701 25.5143 36.6801C23.2964 34.3001 21.2929 31.5101 21.2929 29.2001C21.3072 26.9092 22.2223 24.703 23.8643 23.0001C22.629 24.1017 20.9871 24.7175 19.2786 24.7201C17.7163 24.7402 16.1941 24.2586 14.967 23.3561C13.7398 22.4535 12.8822 21.1848 12.5379 19.7624C12.1936 18.34 12.3834 16.8504 13.0756 15.5431C13.7678 14.2358 14.9202 13.1901 16.34 12.5814C17.7597 11.9726 19.3605 11.8377 20.8741 12.1993C22.3877 12.5608 23.7222 13.3968 24.6541 14.5673C25.586 15.7377 26.0587 17.1715 25.9929 18.6284C25.9271 20.0854 25.3269 21.477 24.2929 22.5701C25.9947 21.0002 28.244 20.0528 30.6313 19.9005C33.0185 19.7481 35.385 20.401 37.3 21.7401C37.7781 20.5768 38.0391 19.3457 38.0714 18.1001C38.0728 15.7973 37.5876 13.5168 36.6434 11.3893C35.6992 9.26179 34.3146 7.32898 32.569 5.70158C30.8233 4.07417 28.7509 2.78413 26.4703 1.90531C24.1898 1.02649 21.7459 0.576158 19.2786 0.580104Z" fill="#6F2CFF"/>
</svg>
